Projeto Thomaz Farkas 6 - Sergio Muniz

Project Thomaz Farkas is a collection of 39 documentaries produced by Thomas Farkas  in the 1960s and 1970s, featuring various cultural events of Brazil linked to the specific reality of each region. The documentaries were organized in a box containing seven discs, and include a short interview with the participation of renowned photographer, producer and documentary filmmaker, exposing a broad universe of Brazilian culture.

The Disc 6 contains the following documentaries:

A Cuíca (1978)
Andiamo In'Merica (1980) - parte1
Andiamo In'Merica (1980) - parte2
Beste (1969)
Cheiro & Gosto - O Provador de Café (1976)
O Berimbau (1978)
Rastejador, S.M. (1969)
Um a Um (1976)

All films have Portuguese audio, and no subtitles. There's a 300 dpi scan of the DVD cover included.

     General
      Complete name : Projeto Thomaz Farkas - Sergio Muniz.avi
      Format : AVI
      Format/Info : Audio Video Interleave
      Format profile : OpenDML
      File size : 2.44 GiB
      Duration : 2h 58mn
      Overall bit rate : 1 953 Kbps
      Writing library : VirtualDub build 32593/release
   Video #0
      ID : 0
      Format : MPEG-4 Visual
      Format profile : AdvancedSimple@L5
      Format settings, BVOP : Yes
      Format settings, QPel : No
      Format settings, GMC : No warppoints
      Format settings, Matrix : Default (MPEG)
      Muxing mode : Packed bitstream
      Codec ID : XVID
      Codec ID/Hint : XviD
      Duration : 2h 58mn
      Bit rate : 1 718 Kbps
      Width : 640 pixels
      Height : 464 pixels
      Display aspect ratio : 1.379
      Frame rate : 23.976 fps
      Resolution : 24 bits
      Colorimetry : 4:2:0
      Scan type : Progressive
      Bits/(Pixel*Frame) : 0.241
      Stream size : 2.14 GiB (88%)
      Writing library : XviD 1.2.0.dev47 (UTC 2006-11-01)
   Audio #1
      ID : 1
      Format : AC-3
      Format/Info : Audio Coding 3
      Codec ID : 2000
      Duration : 2h 58mn
      Bit rate mode : Constant
      Bit rate : 224 Kbps
      Channel(s) : 2 channels
      Channel positions : L R
      Sampling rate : 48.0 KHz
      Stream size : 286 MiB (11%)
      Alignment : Split accross interleaves
      Interleave, duration : 42 ms (1.00 video frame)
      Interleave, preload duration : 500 ms

All films were ripped individually. The specs refer to the films assembled together.
